<?xml version="1.0" encoding="UTF-8"?>
<svg width="840px" height="480px" viewBox="0 0 840 480" version="1.1" xmlns="http://www.w3.org/2000/svg" xmlns:xlink="http://www.w3.org/1999/xlink">
    <!-- Generator: Sketch 48.2 (47327) - http://www.bohemiancoding.com/sketch -->
    <title>pricing-tables-featured</title>
    <desc>Created with Sketch.</desc>
    <defs>
        <path d="M6,0 L184,0 C187.313708,-6.08718376e-16 190,2.6862915 190,6 L190,322 L0,322 L0,6 C-4.05812251e-16,2.6862915 2.6862915,6.08718376e-16 6,0 Z" id="path-1"></path>
        <filter x="-14.7%" y="-9.9%" width="133.7%" height="119.9%" filterUnits="objectBoundingBox" id="filter-2">
            <feOffset dx="4" dy="0" in="SourceAlpha" result="shadowOffsetOuter1"></feOffset>
            <feGaussianBlur stdDeviation="10" in="shadowOffsetOuter1" result="shadowBlurOuter1"></feGaussianBlur>
            <feColorMatrix values="0 0 0 0 0   0 0 0 0 0   0 0 0 0 0  0 0 0 0.198086504 0" type="matrix" in="shadowBlurOuter1"></feColorMatrix>
        </filter>
        <polygon id="path-3" points="13.9684862 23.238 18.168 33.378 18.17 33.38 10.958 36.448 6.44921752 25.7669727 0 32.03 0 0 23.182 23.238"></polygon>
        <filter x="-133.7%" y="-79.6%" width="367.4%" height="270.1%" filterUnits="objectBoundingBox" id="filter-4">
            <feOffset dx="0" dy="2" in="SourceAlpha" result="shadowOffsetOuter1"></feOffset>
            <feGaussianBlur stdDeviation="10" in="shadowOffsetOuter1" result="shadowBlurOuter1"></feGaussianBlur>
            <feColorMatrix values="0 0 0 0 0   0 0 0 0 0   0 0 0 0 0  0 0 0 0.201681386 0" type="matrix" in="shadowBlurOuter1"></feColorMatrix>
        </filter>
    </defs>
    <g id="Page-1" stroke="none" stroke-width="1" fill="none" fill-rule="evenodd">
        <g id="pricing-tables-featured">
            <polygon id="bg" fill="#0B1F28" points="0 480 840 480 840 0 0 0"></polygon>
            <g id="desktop" transform="translate(94.000000, 26.000000)">
                <path d="M726,454 L0,454 L0,6 C0,2.687 2.687,0 6,0 L720,0 C723.313,0 726,2.687 726,6 L726,454 Z" id="container_bg" fill="#153D51"></path>
                <g id="Group-Copy" transform="translate(459.000000, 144.000000)">
                    <rect id="Rectangle" stroke="#FFFFFF" stroke-width="2" fill="#FFFFFF" x="0" y="0" width="190" height="230"></rect>
                    <rect id="Rectangle-3" fill="#0B1F28" x="59" y="179" width="72" height="30" rx="4"></rect>
                    <rect id="Rectangle-4" fill="#FFFFFF" x="80" y="190" width="32" height="8" rx="1"></rect>
                    <rect id="Rectangle-2" fill="#0B1F28" x="60" y="27" width="70" height="14" rx="2"></rect>
                    <rect id="Rectangle-2-Copy" fill="#EAEFF1" x="1" y="67" width="188" height="30"></rect>
                    <rect id="Rectangle-2-Copy-3" fill="#EAEFF1" x="1" y="127" width="188" height="30"></rect>
                </g>
                <g id="Group-Copy-2" transform="translate(77.000000, 144.000000)">
                    <rect id="Rectangle" stroke="#FFFFFF" stroke-width="2" fill="#FFFFFF" x="0" y="0" width="190" height="230"></rect>
                    <rect id="Rectangle-3" fill="#0B1F28" x="59" y="179" width="72" height="30" rx="4"></rect>
                    <rect id="Rectangle-4" fill="#FFFFFF" x="80" y="190" width="32" height="8" rx="1"></rect>
                    <rect id="Rectangle-2" fill="#0B1F28" x="60" y="27" width="70" height="14" rx="2"></rect>
                    <rect id="Rectangle-2-Copy" fill="#EAEFF1" x="1" y="67" width="188" height="30"></rect>
                    <rect id="Rectangle-2-Copy-3" fill="#EAEFF1" x="1" y="127" width="188" height="30"></rect>
                </g>
                <g id="Group" transform="translate(268.000000, 145.000000)">
                    <rect id="Rectangle" stroke="#D56565" stroke-width="4" fill="#FFFFFF" x="0" y="0" width="190" height="228"></rect>
                    <rect id="Rectangle-3" fill="#D56565" x="59" y="178" width="72" height="30" rx="4"></rect>
                    <rect id="Rectangle-4" fill="#FFFFFF" x="80" y="189" width="32" height="8" rx="1"></rect>
                    <rect id="Rectangle-2" fill="#D56565" x="60" y="26" width="70" height="14" rx="2"></rect>
                    <rect id="Rectangle-2-Copy" fill="#EAEFF1" x="2" y="66" width="186" height="30"></rect>
                    <rect id="Rectangle-2-Copy-3" fill="#EAEFF1" x="2" y="126" width="186" height="30"></rect>
                </g>
                <rect id="Rectangle-5" stroke="#25536A" stroke-width="2" x="329" y="70" width="68" height="38" rx="19"></rect>
                <circle id="Oval" fill="#0B1F28" cx="348" cy="89" r="15"></circle>
                <g id="dots" transform="translate(15.000000, 8.000000)" fill="#25536A">
                    <path d="M8,4 C8,6.209 6.209,8 4,8 C1.791,8 0,6.209 0,4 C0,1.791 1.791,0 4,0 C6.209,0 8,1.791 8,4" id="Fill-6"></path>
                    <path d="M24,4 C24,6.209 22.209,8 20,8 C17.791,8 16,6.209 16,4 C16,1.791 17.791,0 20,0 C22.209,0 24,1.791 24,4" id="Fill-8"></path>
                    <path d="M40,4 C40,6.209 38.209,8 36,8 C33.791,8 32,6.209 32,4 C32,1.791 33.791,0 36,0 C38.209,0 40,1.791 40,4" id="Fill-10"></path>
                </g>
            </g>
            <g id="mobile" transform="translate(20.000000, 158.000000)">
                <g id="mobile_bg">
                    <use fill="black" fill-opacity="1" filter="url(#filter-2)" xlink:href="#path-1"></use>
                    <use fill="#153D51" fill-rule="evenodd" xlink:href="#path-1"></use>
                </g>
                <g id="Group-2" transform="translate(61.000000, 36.000000)">
                    <rect id="Rectangle-5" stroke="#25536A" stroke-width="2" x="0" y="0" width="68" height="38" rx="19"></rect>
                    <circle id="Oval" fill="#0B1F28" cx="19" cy="19" r="15"></circle>
                </g>
                <g id="small-right" transform="translate(151.000000, 119.000000)"></g>
                <g id="Group-3" transform="translate(17.000000, 99.000000)">
                    <rect id="Rectangle-6" fill="#FFFFFF" x="0" y="0" width="156" height="92"></rect>
                    <rect id="Rectangle-6-Copy" fill="#339FD3" x="0" y="0" width="156" height="46"></rect>
                    <rect id="Rectangle-7" fill="#FFFFFF" x="13" y="18" width="51" height="11" rx="2"></rect>
                    <polyline id="Shape" stroke="#FFFFFF" stroke-width="3" stroke-linecap="square" points="134 20 138 24 134 28"></polyline>
                    <rect id="Rectangle-7-Copy" fill="#D6E1E6" x="13" y="64" width="37" height="11" rx="2"></rect>
                    <rect id="Rectangle-7-Copy-2" fill="#D6E1E6" x="71" y="64" width="37" height="11" rx="2"></rect>
                    <path d="M131,64 L156,64 L156,75 L131,75 C129.895431,75 129,74.1045695 129,73 L129,66 C129,64.8954305 129.895431,64 131,64 Z" id="Rectangle-7-Copy-3" fill="#D6E1E6"></path>
                </g>
                <g id="Group-3-Copy" transform="translate(17.000000, 207.000000)">
                    <rect id="Rectangle-6" fill="#FFFFFF" x="0" y="0" width="156" height="92"></rect>
                    <rect id="Rectangle-6-Copy" fill="#D56565" x="0" y="0" width="156" height="46"></rect>
                    <rect id="Rectangle-7" fill="#FFFFFF" x="13" y="18" width="51" height="11" rx="2"></rect>
                    <polyline id="Shape" stroke="#FFFFFF" stroke-width="3" stroke-linecap="square" points="134 20 138 24 134 28"></polyline>
                    <rect id="Rectangle-7-Copy" fill="#D6E1E6" x="13" y="64" width="37" height="11" rx="2"></rect>
                    <rect id="Rectangle-7-Copy-2" fill="#D6E1E6" x="71" y="64" width="37" height="11" rx="2"></rect>
                    <path d="M131,64 L156,64 L156,75 L131,75 C129.895431,75 129,74.1045695 129,73 L129,66 C129,64.8954305 129.895431,64 131,64 Z" id="Rectangle-7-Copy-3" fill="#D6E1E6"></path>
                </g>
                <path d="M0,7 L0,6 C0,2.687 2.0769043,0 6,0 L184,0 C188.06543,0 190,2.687 190,6 L190,7 C190,3.687 187.313,1 184,1 L6,1 C2.687,1 0,3.687 0,7 Z" id="inner-shadow" fill="#FFFFFF" opacity="0.146795743"></path>
            </g>
            <g id="default" transform="translate(484.000000, 366.000000)" fill-rule="nonzero">
                <g id="Combined-Shape">
                    <use fill="black" fill-opacity="1" filter="url(#filter-4)" xlink:href="#path-3"></use>
                    <use fill="#FFFFFF" fill-rule="evenodd" xlink:href="#path-3"></use>
                </g>
                <polygon id="Shape" fill="#000000" points="15.502 32.018 11.814 33.566 5.614 18.818 9.296 17.268 15.502 32.018"></polygon>
                <polygon id="Shape" fill="#000000" points="2 4.814 2 27.19 7.938 21.458 8.794 21.18 18.33 21.18"></polygon>
            </g>
        </g>
    </g>
</svg>